<mxfile host="app.diagrams.net" modified="2021-05-24T13:11:02.893Z" agent="5.0 (Windows NT 6.1; Win64; x64) AppleWebKit/537.36 (KHTML, like Gecko) Chrome/87.0.4280.88 Safari/537.36" etag="JNrMDPrtIbyZRvCxv3kK" version="14.6.13" type="github">
  <diagram id="LY_-0VuARTMJARn0iHrJ" name="Page-1">
    <mxGraphModel dx="868" dy="450" grid="1" gridSize="10" guides="1" tooltips="1" connect="1" arrows="1" fold="1" page="1" pageScale="1" pageWidth="827" pageHeight="1169" math="0" shadow="0">
      <root>
        <mxCell id="0" />
        <mxCell id="1" parent="0" />
        <mxCell id="QE7Bl5ZxDWa1Gksq_pt1-7" style="edgeStyle=orthogonalEdgeStyle;rounded=0;orthogonalLoop=1;jettySize=auto;html=1;exitX=1;exitY=0.5;exitDx=0;exitDy=0;entryX=0;entryY=0.5;entryDx=0;entryDy=0;" parent="1" target="QE7Bl5ZxDWa1Gksq_pt1-5" edge="1">
          <mxGeometry relative="1" as="geometry">
            <mxPoint x="250" y="180" as="sourcePoint" />
          </mxGeometry>
        </mxCell>
        <mxCell id="QE7Bl5ZxDWa1Gksq_pt1-14" style="edgeStyle=orthogonalEdgeStyle;rounded=0;orthogonalLoop=1;jettySize=auto;html=1;exitX=0.5;exitY=1;exitDx=0;exitDy=0;entryX=0.5;entryY=0;entryDx=0;entryDy=0;" parent="1" source="QE7Bl5ZxDWa1Gksq_pt1-4" target="QE7Bl5ZxDWa1Gksq_pt1-13" edge="1">
          <mxGeometry relative="1" as="geometry" />
        </mxCell>
        <mxCell id="QE7Bl5ZxDWa1Gksq_pt1-4" value="&lt;font style=&quot;font-size: 18px&quot;&gt;自动污水&lt;br&gt;采样&lt;/font&gt;" style="shape=process;whiteSpace=wrap;html=1;backgroundOutline=1;fillColor=#fff2cc;strokeColor=#d6b656;" parent="1" vertex="1">
          <mxGeometry x="520" y="150" width="120" height="60" as="geometry" />
        </mxCell>
        <mxCell id="QE7Bl5ZxDWa1Gksq_pt1-8" style="edgeStyle=orthogonalEdgeStyle;rounded=0;orthogonalLoop=1;jettySize=auto;html=1;exitX=1;exitY=0.5;exitDx=0;exitDy=0;" parent="1" source="QE7Bl5ZxDWa1Gksq_pt1-5" target="QE7Bl5ZxDWa1Gksq_pt1-4" edge="1">
          <mxGeometry relative="1" as="geometry" />
        </mxCell>
        <mxCell id="QE7Bl5ZxDWa1Gksq_pt1-5" value="&lt;font style=&quot;font-size: 18px&quot;&gt;超标告警&lt;/font&gt;" style="shape=process;whiteSpace=wrap;html=1;backgroundOutline=1;fillColor=#fff2cc;strokeColor=#d6b656;" parent="1" vertex="1">
          <mxGeometry x="320" y="150" width="120" height="60" as="geometry" />
        </mxCell>
        <mxCell id="QE7Bl5ZxDWa1Gksq_pt1-32" style="edgeStyle=orthogonalEdgeStyle;rounded=0;orthogonalLoop=1;jettySize=auto;html=1;exitX=1;exitY=0;exitDx=0;exitDy=71.25;exitPerimeter=0;entryX=0;entryY=0.75;entryDx=0;entryDy=0;strokeWidth=1;" parent="1" source="QE7Bl5ZxDWa1Gksq_pt1-6" target="QE7Bl5ZxDWa1Gksq_pt1-16" edge="1">
          <mxGeometry relative="1" as="geometry">
            <Array as="points">
              <mxPoint x="120" y="325" />
            </Array>
          </mxGeometry>
        </mxCell>
        <mxCell id="QE7Bl5ZxDWa1Gksq_pt1-6" value="&lt;font style=&quot;font-size: 16px&quot;&gt;污染源荧光指纹数据库&lt;/font&gt;" style="shape=cylinder3;whiteSpace=wrap;html=1;boundedLbl=1;backgroundOutline=1;size=15;fillColor=#dae8fc;strokeColor=#6c8ebf;fontSize=16;" parent="1" vertex="1">
          <mxGeometry x="50" y="250" width="70" height="105" as="geometry" />
        </mxCell>
        <mxCell id="QE7Bl5ZxDWa1Gksq_pt1-11" value="&lt;span&gt;&lt;font style=&quot;font-size: 18px&quot;&gt;在线监测数据&lt;/font&gt;&lt;/span&gt;" style="rounded=1;whiteSpace=wrap;html=1;fillColor=#dae8fc;strokeColor=#6c8ebf;" parent="1" vertex="1">
          <mxGeometry x="130" y="150" width="120" height="60" as="geometry" />
        </mxCell>
        <mxCell id="QE7Bl5ZxDWa1Gksq_pt1-19" style="edgeStyle=orthogonalEdgeStyle;rounded=0;orthogonalLoop=1;jettySize=auto;html=1;exitX=0;exitY=0.5;exitDx=0;exitDy=0;entryX=1;entryY=0.5;entryDx=0;entryDy=0;" parent="1" source="QE7Bl5ZxDWa1Gksq_pt1-12" target="QE7Bl5ZxDWa1Gksq_pt1-16" edge="1">
          <mxGeometry relative="1" as="geometry" />
        </mxCell>
        <mxCell id="QE7Bl5ZxDWa1Gksq_pt1-12" value="&lt;font style=&quot;font-size: 18px&quot;&gt;三维荧光&lt;br&gt;快速检测&lt;/font&gt;" style="shape=process;whiteSpace=wrap;html=1;backgroundOutline=1;fillColor=#fff2cc;strokeColor=#d6b656;" parent="1" vertex="1">
          <mxGeometry x="354" y="280" width="120" height="60" as="geometry" />
        </mxCell>
        <mxCell id="QE7Bl5ZxDWa1Gksq_pt1-15" style="edgeStyle=orthogonalEdgeStyle;rounded=0;orthogonalLoop=1;jettySize=auto;html=1;exitX=0;exitY=0.5;exitDx=0;exitDy=0;entryX=1;entryY=0.5;entryDx=0;entryDy=0;" parent="1" source="QE7Bl5ZxDWa1Gksq_pt1-13" target="QE7Bl5ZxDWa1Gksq_pt1-12" edge="1">
          <mxGeometry relative="1" as="geometry" />
        </mxCell>
        <mxCell id="QE7Bl5ZxDWa1Gksq_pt1-13" value="&lt;font style=&quot;font-size: 18px&quot;&gt;预处理&lt;/font&gt;" style="shape=process;whiteSpace=wrap;html=1;backgroundOutline=1;fillColor=#fff2cc;strokeColor=#d6b656;" parent="1" vertex="1">
          <mxGeometry x="520" y="280" width="120" height="60" as="geometry" />
        </mxCell>
        <mxCell id="QE7Bl5ZxDWa1Gksq_pt1-20" style="edgeStyle=orthogonalEdgeStyle;rounded=0;orthogonalLoop=1;jettySize=auto;html=1;exitX=0;exitY=0.25;exitDx=0;exitDy=0;" parent="1" source="QE7Bl5ZxDWa1Gksq_pt1-16" edge="1">
          <mxGeometry relative="1" as="geometry">
            <mxPoint x="120" y="295" as="targetPoint" />
          </mxGeometry>
        </mxCell>
        <mxCell id="QE7Bl5ZxDWa1Gksq_pt1-23" style="edgeStyle=orthogonalEdgeStyle;rounded=0;orthogonalLoop=1;jettySize=auto;html=1;exitX=0.5;exitY=1;exitDx=0;exitDy=0;entryX=0.5;entryY=0;entryDx=0;entryDy=0;" parent="1" source="QE7Bl5ZxDWa1Gksq_pt1-16" target="QE7Bl5ZxDWa1Gksq_pt1-22" edge="1">
          <mxGeometry relative="1" as="geometry" />
        </mxCell>
        <mxCell id="QE7Bl5ZxDWa1Gksq_pt1-16" value="&lt;font style=&quot;font-size: 18px&quot;&gt;平行因子&lt;br&gt;分析&lt;/font&gt;" style="shape=process;whiteSpace=wrap;html=1;backgroundOutline=1;fillColor=#fff2cc;strokeColor=#d6b656;" parent="1" vertex="1">
          <mxGeometry x="180" y="280" width="120" height="60" as="geometry" />
        </mxCell>
        <mxCell id="QE7Bl5ZxDWa1Gksq_pt1-30" style="edgeStyle=orthogonalEdgeStyle;rounded=0;orthogonalLoop=1;jettySize=auto;html=1;exitX=0.5;exitY=1;exitDx=0;exitDy=0;entryX=0.5;entryY=0;entryDx=0;entryDy=0;strokeWidth=1;" parent="1" source="QE7Bl5ZxDWa1Gksq_pt1-22" target="QE7Bl5ZxDWa1Gksq_pt1-24" edge="1">
          <mxGeometry relative="1" as="geometry" />
        </mxCell>
        <mxCell id="QE7Bl5ZxDWa1Gksq_pt1-22" value="&lt;font style=&quot;font-size: 18px&quot;&gt;源解析结果&lt;/font&gt;" style="rounded=1;whiteSpace=wrap;html=1;fillColor=#dae8fc;strokeColor=#6c8ebf;" parent="1" vertex="1">
          <mxGeometry x="180" y="390" width="120" height="60" as="geometry" />
        </mxCell>
        <mxCell id="QE7Bl5ZxDWa1Gksq_pt1-26" style="edgeStyle=orthogonalEdgeStyle;rounded=0;orthogonalLoop=1;jettySize=auto;html=1;exitX=1;exitY=0.5;exitDx=0;exitDy=0;entryX=0;entryY=0.5;entryDx=0;entryDy=0;" parent="1" source="QE7Bl5ZxDWa1Gksq_pt1-24" target="QE7Bl5ZxDWa1Gksq_pt1-25" edge="1">
          <mxGeometry relative="1" as="geometry" />
        </mxCell>
        <mxCell id="QE7Bl5ZxDWa1Gksq_pt1-24" value="&lt;font style=&quot;font-size: 18px&quot;&gt;管道机器人&lt;/font&gt;" style="rounded=1;whiteSpace=wrap;html=1;fillColor=#dae8fc;strokeColor=#6c8ebf;" parent="1" vertex="1">
          <mxGeometry x="180" y="500" width="120" height="60" as="geometry" />
        </mxCell>
        <mxCell id="QE7Bl5ZxDWa1Gksq_pt1-29" style="edgeStyle=orthogonalEdgeStyle;rounded=0;orthogonalLoop=1;jettySize=auto;html=1;exitX=1;exitY=0.5;exitDx=0;exitDy=0;entryX=0;entryY=0.5;entryDx=0;entryDy=0;strokeWidth=1;" parent="1" source="QE7Bl5ZxDWa1Gksq_pt1-25" target="QE7Bl5ZxDWa1Gksq_pt1-28" edge="1">
          <mxGeometry relative="1" as="geometry" />
        </mxCell>
        <mxCell id="QE7Bl5ZxDWa1Gksq_pt1-25" value="&lt;font style=&quot;font-size: 18px&quot;&gt;跟踪识判&lt;/font&gt;" style="shape=process;whiteSpace=wrap;html=1;backgroundOutline=1;fillColor=#fff2cc;strokeColor=#d6b656;" parent="1" vertex="1">
          <mxGeometry x="367" y="500" width="120" height="60" as="geometry" />
        </mxCell>
        <mxCell id="QE7Bl5ZxDWa1Gksq_pt1-27" value="" style="endArrow=none;dashed=1;html=1;strokeWidth=2;fillColor=#e1d5e7;strokeColor=#9673a6;" parent="1" edge="1">
          <mxGeometry width="50" height="50" relative="1" as="geometry">
            <mxPoint x="50" y="472" as="sourcePoint" />
            <mxPoint x="690" y="472" as="targetPoint" />
          </mxGeometry>
        </mxCell>
        <mxCell id="QE7Bl5ZxDWa1Gksq_pt1-28" value="&lt;font style=&quot;font-size: 18px&quot;&gt;溯源定位&lt;/font&gt;" style="rounded=1;whiteSpace=wrap;html=1;fillColor=#dae8fc;strokeColor=#6c8ebf;" parent="1" vertex="1">
          <mxGeometry x="557" y="500" width="120" height="60" as="geometry" />
        </mxCell>
        <mxCell id="-rVO8imEFM4ahqoR8gR7-3" style="edgeStyle=orthogonalEdgeStyle;rounded=0;orthogonalLoop=1;jettySize=auto;html=1;exitX=1;exitY=0.5;exitDx=0;exitDy=0;" edge="1" parent="1" source="-rVO8imEFM4ahqoR8gR7-1" target="-rVO8imEFM4ahqoR8gR7-2">
          <mxGeometry relative="1" as="geometry" />
        </mxCell>
        <mxCell id="-rVO8imEFM4ahqoR8gR7-1" value="&lt;span style=&quot;font-size: 18px&quot;&gt;红外相机&lt;/span&gt;" style="rounded=1;whiteSpace=wrap;html=1;fillColor=#dae8fc;strokeColor=#6c8ebf;" vertex="1" parent="1">
          <mxGeometry x="180" y="585" width="120" height="60" as="geometry" />
        </mxCell>
        <mxCell id="-rVO8imEFM4ahqoR8gR7-5" style="edgeStyle=orthogonalEdgeStyle;rounded=0;orthogonalLoop=1;jettySize=auto;html=1;exitX=1;exitY=0.5;exitDx=0;exitDy=0;" edge="1" parent="1" source="-rVO8imEFM4ahqoR8gR7-2" target="QE7Bl5ZxDWa1Gksq_pt1-28">
          <mxGeometry relative="1" as="geometry" />
        </mxCell>
        <mxCell id="-rVO8imEFM4ahqoR8gR7-2" value="&lt;font style=&quot;font-size: 18px&quot;&gt;检测管道&lt;br&gt;入渗监测&lt;br&gt;&lt;/font&gt;" style="shape=process;whiteSpace=wrap;html=1;backgroundOutline=1;fillColor=#fff2cc;strokeColor=#d6b656;" vertex="1" parent="1">
          <mxGeometry x="367" y="585" width="120" height="60" as="geometry" />
        </mxCell>
      </root>
    </mxGraphModel>
  </diagram>
</mxfile>
